# xmcd
#
# Track frame offsets:
# 150
# 23307
# 41835
# 69006
# 88567
# 112070
# 140521
# 170942
# 197105
# 217989
# 243000
#
# Disc length: 3630 seconds
#
#
# Revision: 0
# Processed by: cddbd v1.5.2PL0 Copyright (c) Steve Scherf et al.
# Submitted via: FreeRIP 2.941 
#
DISCID=910e2c0b
DTITLE=Wolf Maan - Zauberstraßen
DYEAR=1900
DGENRE=Soul
TTITLE0=Eins für die Schwärmer
TTITLE1=Mach ES deins
TTITLE2=Süßer Alarm
TTITLE3=Schatzjäger
TTITLE4=Grüße vom Mond
TTITLE5=Karina
TTITLE6=Kathedralen von Zahlen
TTITLE7=Schlüssel,der zum Himmel passt
TTITLE8=Zauberblick
TTITLE9=Treibsand
TTITLE10=
EXTD=
EXTT0=
EXTT1=
EXTT2=
EXTT3=
EXTT4=
EXTT5=
EXTT6=
EXTT7=
EXTT8=
EXTT9=
EXTT10=
PLAYORDER=
